<?xml version="1.0" encoding="iso-8859-1"?>
<!-- Generator: Adobe Illustrator 21.0.2, SVG Export Plug-In . SVG Version: 6.00 Build 0)  -->
<svg xmlns="http://www.w3.org/2000/svg" xmlns:xlink="http://www.w3.org/1999/xlink" version="1.1" id="Layer_1" x="0px" y="0px" viewBox="0 0 50 50" style="enable-background:new 0 0 50 50;" xml:space="preserve" width="100px" height="100px">
<path style="fill:none;stroke:#000000;stroke-width:2;stroke-miterlimit:10;" d="M43.421,12.875L26.579,3.412  c-0.977-0.549-2.181-0.549-3.158,0L6.579,12.875C5.602,13.424,5,14.439,5,15.537v18.927c0,1.098,0.602,2.113,1.579,2.662  l16.842,9.463c0.977,0.549,2.181,0.549,3.158,0l16.842-9.463C44.398,36.576,45,35.561,45,34.463V15.537  C45,14.439,44.398,13.424,43.421,12.875z"/>
<line style="fill:none;stroke:#000000;stroke-width:2;stroke-miterlimit:10;" x1="36" y1="20" x2="36" y2="30"/>
<line style="fill:none;stroke:#000000;stroke-width:2;stroke-miterlimit:10;" x1="40" y1="20" x2="40" y2="30"/>
<line style="fill:none;stroke:#000000;stroke-width:2;stroke-miterlimit:10;" x1="33" y1="23" x2="43" y2="23"/>
<line style="fill:none;stroke:#000000;stroke-width:2;stroke-miterlimit:10;" x1="33" y1="27" x2="43" y2="27"/>
<path style="fill:none;stroke:#000000;stroke-width:2;stroke-miterlimit:10;" d="M25,13c3.78,0,7.275,1.755,9.542,4.741l-4.38,2.536  C28.844,18.837,26.973,18,25,18c-3.86,0-7,3.14-7,7s3.14,7,7,7c1.973,0,3.844-0.837,5.162-2.277l4.38,2.536  C32.275,35.245,28.78,37,25,37c-6.617,0-12-5.383-12-12S18.383,13,25,13"/>
</svg>
