<svg xmlns="http://www.w3.org/2000/svg" width="448" height="512" style=""><rect id="backgroundrect" width="100%" height="100%" x="0" y="0" fill="none" stroke="none"/>

 <g style="">
  <title>background</title>
  <rect fill="none" id="canvas_background" height="514" width="266" y="-1" x="-1"/>
 </g>
 <g style="" class="currentLayer">
  <title>Layer 1</title>
  <path fill="#f73e81" id="svg_1" d="m100.300003,480l-92.900003,0l0,-299.100006l92.900003,0l0,299.100006zm-46.500004,-339.899994c-29.699999,0 -53.799999,-24.600006 -53.799999,-54.300003c0,-29.700005 24.1,-53.800003 53.799999,-53.800003c29.700001,0 53.799999,24.099998 53.799999,53.799995c0,29.700005 -24.099998,54.299995 -53.799999,54.299995l0,0.000015zm394.200001,339.899994l-92.700012,0l0,-145.600006c0,-34.700012 -0.699982,-79.199997 -48.299988,-79.199997c-48.299988,0 -55.699997,37.699997 -55.699997,76.699997l0,148.100006l-92.800003,0l0,-299.100006l89.099991,0l0,40.800003l1.300003,0c12.399994,-23.5 42.700012,-48.300003 87.899994,-48.300003c94,0 111.300018,61.899994 111.300018,142.300018l0,164.299988l-0.100006,0z" class="selected" fill-opacity="1"/>
 </g>
</svg>