<svg xmlns="http://www.w3.org/2000/svg" width="512" height="512"><rect id="backgroundrect" width="100%" height="100%" x="0" y="0" fill="none" stroke="none"/>

 <g style="">
  <title>background</title>
  <rect fill="none" id="canvas_background" height="514" width="266" y="-1" x="-1"/>
 </g>
 <g style="" class="currentLayer">
  <title>Layer 1</title>
  <path fill="#f73e81" id="svg_1" d="m459.369995,151.716003c0.325012,4.548004 0.325012,9.097 0.325012,13.645004c0,138.719986 -105.583008,298.557999 -298.558029,298.557999c-59.451996,0 -114.679996,-17.218994 -161.13699,-47.105988c8.446999,0.973999 16.568001,1.299011 25.340001,1.299011c49.055,0 94.212997,-16.568024 130.273994,-44.832001c-46.131996,-0.975006 -84.791992,-31.188019 -98.111992,-72.772003c6.498001,0.973999 12.994995,1.623993 19.818001,1.623993c9.420998,0 18.843002,-1.300018 27.613998,-3.572998c-48.081001,-9.747009 -84.142996,-51.980011 -84.142996,-102.985001l0,-1.299011c13.969,7.797012 30.213999,12.669998 47.430998,13.319c-28.264,-18.843002 -46.780998,-51.00499 -46.780998,-87.390991c0,-19.492004 5.197001,-37.360001 14.294003,-52.954002c51.654995,63.674995 129.300007,105.258003 216.365009,109.806999c-1.624008,-7.796997 -2.598999,-15.917999 -2.598999,-24.039993c0,-57.828003 46.781982,-104.934006 104.93399,-104.934006c30.213013,0 57.502014,12.670002 76.670013,33.137001c23.714996,-4.547997 46.455994,-13.32 66.598999,-25.34c-7.798004,24.366001 -24.366028,44.833004 -46.132019,57.827c21.117004,-2.272995 41.584015,-8.122002 60.425995,-16.242996c-14.291992,20.791 -32.16098,39.307991 -52.627991,54.252998l0,-0.000015z" class="selected" fill-opacity="1"/>
 </g>
</svg>